<svg width="96" height="39" viewBox="0 0 96 39" fill="none" xmlns="http://www.w3.org/2000/svg">
<path d="M4.52273 31.2159C3.90152 31.2159 3.36742 30.9962 2.92045 30.5568C2.47348 30.1098 2.25 29.572 2.25 28.9432C2.25 28.322 2.47348 27.7917 2.92045 27.3523C3.36742 26.9053 3.90152 26.6818 4.52273 26.6818C5.14394 26.6818 5.67803 26.9053 6.125 27.3523C6.57197 27.7917 6.79545 28.322 6.79545 28.9432C6.79545 29.3598 6.68939 29.7424 6.47727 30.0909C6.27273 30.4318 6 30.7045 5.65909 30.9091C5.31818 31.1136 4.93939 31.2159 4.52273 31.2159ZM31.8352 19.3636C31.8352 21.8485 31.3807 23.9848 30.4716 25.7727C29.5625 27.553 28.3163 28.9242 26.733 29.8864C25.1572 30.8409 23.3655 31.3182 21.358 31.3182C19.3428 31.3182 17.5436 30.8409 15.9602 29.8864C14.3845 28.9242 13.142 27.5492 12.233 25.7614C11.3239 23.9735 10.8693 21.8409 10.8693 19.3636C10.8693 16.8788 11.3239 14.7462 12.233 12.9659C13.142 11.178 14.3845 9.80682 15.9602 8.85227C17.5436 7.89015 19.3428 7.40909 21.358 7.40909C23.3655 7.40909 25.1572 7.89015 26.733 8.85227C28.3163 9.80682 29.5625 11.178 30.4716 12.9659C31.3807 14.7462 31.8352 16.8788 31.8352 19.3636ZM28.358 19.3636C28.358 17.4697 28.0511 15.875 27.4375 14.5795C26.8314 13.2765 25.9981 12.2917 24.9375 11.625C23.8845 10.9508 22.6913 10.6136 21.358 10.6136C20.017 10.6136 18.8201 10.9508 17.767 11.625C16.714 12.2917 15.8807 13.2765 15.267 14.5795C14.661 15.875 14.358 17.4697 14.358 19.3636C14.358 21.2576 14.661 22.8561 15.267 24.1591C15.8807 25.4545 16.714 26.4394 17.767 27.1136C18.8201 27.7803 20.017 28.1136 21.358 28.1136C22.6913 28.1136 23.8845 27.7803 24.9375 27.1136C25.9981 26.4394 26.8314 25.4545 27.4375 24.1591C28.0511 22.8561 28.358 21.2576 28.358 19.3636ZM39.3381 7.72727V31H35.9403V7.72727H39.3381ZM48.9886 31.3864C47.8826 31.3864 46.8826 31.1818 45.9886 30.7727C45.0947 30.3561 44.3864 29.7538 43.8636 28.9659C43.3485 28.178 43.0909 27.2121 43.0909 26.0682C43.0909 25.0833 43.2803 24.2727 43.6591 23.6364C44.0379 23 44.5492 22.4962 45.1932 22.125C45.8371 21.7538 46.5568 21.4735 47.3523 21.2841C48.1477 21.0947 48.9583 20.9508 49.7841 20.8523C50.8295 20.7311 51.678 20.6326 52.3295 20.5568C52.9811 20.4735 53.4545 20.3409 53.75 20.1591C54.0455 19.9773 54.1932 19.6818 54.1932 19.2727V19.1932C54.1932 18.2008 53.9129 17.4318 53.3523 16.8864C52.7992 16.3409 51.9735 16.0682 50.875 16.0682C49.7311 16.0682 48.8295 16.322 48.1705 16.8295C47.5189 17.3295 47.0682 17.8864 46.8182 18.5L43.625 17.7727C44.0038 16.7121 44.5568 15.8561 45.2841 15.2045C46.0189 14.5455 46.8636 14.0682 47.8182 13.7727C48.7727 13.4697 49.7765 13.3182 50.8295 13.3182C51.5265 13.3182 52.2652 13.4015 53.0455 13.5682C53.8333 13.7273 54.5682 14.0227 55.25 14.4545C55.9394 14.8864 56.5038 15.5038 56.9432 16.3068C57.3826 17.1023 57.6023 18.1364 57.6023 19.4091V31H54.2841V28.6136H54.1477C53.928 29.053 53.5985 29.4848 53.1591 29.9091C52.7197 30.3333 52.1553 30.6856 51.4659 30.9659C50.7765 31.2462 49.9508 31.3864 48.9886 31.3864ZM49.7273 28.6591C50.6667 28.6591 51.4697 28.4735 52.1364 28.1023C52.8106 27.7311 53.322 27.2462 53.6705 26.6477C54.0265 26.0417 54.2045 25.3939 54.2045 24.7045V22.4545C54.0833 22.5758 53.8485 22.6894 53.5 22.7955C53.1591 22.8939 52.7689 22.9811 52.3295 23.0568C51.8902 23.125 51.4621 23.1894 51.0455 23.25C50.6288 23.303 50.2803 23.3485 50 23.3864C49.3409 23.4697 48.7386 23.6098 48.1932 23.8068C47.6553 24.0038 47.2235 24.2879 46.8977 24.6591C46.5795 25.0227 46.4205 25.5076 46.4205 26.1136C46.4205 26.9545 46.7311 27.5909 47.3523 28.0227C47.9735 28.447 48.7652 28.6591 49.7273 28.6591ZM65.2528 25.0795L65.2301 20.9318H65.821L72.7756 13.5455H76.8438L68.9119 21.9545H68.3778L65.2528 25.0795ZM62.1278 31V7.72727H65.5256V31H62.1278ZM73.1506 31L66.9006 22.7045L69.2415 20.3295L77.321 31H73.1506ZM86.7443 31.3523C85.0246 31.3523 83.5436 30.9848 82.3011 30.25C81.0663 29.5076 80.1117 28.4659 79.4375 27.125C78.7708 25.7765 78.4375 24.197 78.4375 22.3864C78.4375 20.5985 78.7708 19.0227 79.4375 17.6591C80.1117 16.2955 81.0511 15.2311 82.2557 14.4659C83.4678 13.7008 84.8845 13.3182 86.5057 13.3182C87.4905 13.3182 88.4451 13.4811 89.3693 13.8068C90.2936 14.1326 91.1231 14.6439 91.858 15.3409C92.5928 16.0379 93.1723 16.9432 93.5966 18.0568C94.0208 19.1629 94.233 20.5076 94.233 22.0909V23.2955H80.358V20.75H90.9034C90.9034 19.8561 90.7216 19.0644 90.358 18.375C89.9943 17.678 89.483 17.1288 88.8239 16.7273C88.1723 16.3258 87.4072 16.125 86.5284 16.125C85.5739 16.125 84.7405 16.3598 84.0284 16.8295C83.3239 17.2917 82.7784 17.8977 82.392 18.6477C82.0133 19.3902 81.8239 20.197 81.8239 21.0682V23.0568C81.8239 24.2235 82.0284 25.2159 82.4375 26.0341C82.8542 26.8523 83.4337 27.4773 84.1761 27.9091C84.9186 28.3333 85.786 28.5455 86.7784 28.5455C87.4223 28.5455 88.0095 28.4545 88.5398 28.2727C89.0701 28.0833 89.5284 27.803 89.9148 27.4318C90.3011 27.0606 90.5966 26.6023 90.8011 26.0568L94.017 26.6364C93.7595 27.5833 93.2973 28.4129 92.6307 29.125C91.9716 29.8295 91.142 30.3788 90.142 30.7727C89.1496 31.1591 88.017 31.3523 86.7443 31.3523Z" fill="#131313"/>
</svg>
